<svg width="31" height="31" viewBox="0 0 31 31" fill="none" xmlns="http://www.w3.org/2000/svg">
<path d="M15.5 3.3125H15.5C16.7432 3.3125 17.9355 3.80636 18.8146 4.68544C19.6936 5.56451 20.1875 6.7568 20.1875 8V15.5C20.1875 16.7432 19.6936 17.9355 18.8146 18.8146C17.9355 19.6936 16.7432 20.1875 15.5 20.1875H15.5C14.8844 20.1875 14.2749 20.0663 13.7062 19.8307C13.1375 19.5951 12.6207 19.2498 12.1854 18.8146C11.7502 18.3793 11.4049 17.8625 11.1693 17.2938C10.9337 16.7251 10.8125 16.1156 10.8125 15.5V7.99999C10.8125 6.75679 11.3064 5.56451 12.1854 4.68543C13.0645 3.80636 14.2568 3.3125 15.5 3.3125V3.3125Z" stroke="black" stroke-width="2" stroke-linecap="round" stroke-linejoin="round"/>
<path d="M15.5 23.9375V27.6875" stroke="black" stroke-width="2" stroke-linecap="round" stroke-linejoin="round"/>
<path d="M23.886 16.4375C23.6552 18.5001 22.6723 20.4054 21.1253 21.789C19.5782 23.1726 17.5755 23.9375 15.5 23.9375C13.4245 23.9375 11.4218 23.1726 9.87474 21.789C8.32768 20.4054 7.34481 18.5001 7.11401 16.4375" stroke="black" stroke-width="2" stroke-linecap="round" stroke-linejoin="round"/>
</svg>
