<svg width="32" height="33" viewBox="0 0 32 33" fill="none" xmlns="http://www.w3.org/2000/svg">
<path d="M28.5185 15.6468L10.5215 4.64819C10.3699 4.55555 10.1963 4.50497 10.0187 4.50164C9.8411 4.49831 9.6658 4.54237 9.51085 4.62927C9.3559 4.71617 9.2269 4.84277 9.13711 4.99607C9.04733 5.14936 9 5.32381 9 5.50146V27.4986C9 27.6763 9.04733 27.8507 9.13711 28.004C9.2269 28.1573 9.3559 28.2839 9.51085 28.3708C9.6658 28.4577 9.8411 28.5018 10.0187 28.4984C10.1963 28.4951 10.3699 28.4445 10.5215 28.3519L28.5185 17.3533C28.6647 17.264 28.7855 17.1386 28.8693 16.9892C28.9531 16.8398 28.9971 16.6713 28.9971 16.5C28.9971 16.3287 28.9531 16.1603 28.8693 16.0109C28.7855 15.8615 28.6647 15.7361 28.5185 15.6468Z" stroke="black" stroke-width="2" stroke-linecap="round" stroke-linejoin="round"/>
</svg>
