<svg width="33" height="33" viewBox="0 0 33 33" fill="none" xmlns="http://www.w3.org/2000/svg">
<path d="M12.5 26.498H9.50003C8.50733 26.4971 7.52618 26.285 6.62172 25.8758C5.71725 25.4667 4.91016 24.8698 4.254 24.1249C3.59785 23.38 3.10764 22.504 2.81591 21.5551C2.52419 20.6063 2.43762 19.6062 2.56196 18.6213C2.6863 17.6364 3.01869 16.6892 3.53708 15.8426C4.05548 14.996 4.74801 14.2694 5.56871 13.7109C6.38942 13.1524 7.31952 12.7749 8.29729 12.6033C9.27507 12.4318 10.2781 12.4702 11.2399 12.716" stroke="black" stroke-width="2" stroke-linecap="round" stroke-linejoin="round"/>
<path d="M10.5 16.498C10.5002 14.9136 10.8768 13.3518 11.5989 11.9415C12.321 10.5312 13.368 9.31262 14.6534 8.38625C15.9388 7.45988 17.426 6.85221 18.9923 6.61333C20.5587 6.37445 22.1594 6.51118 23.6625 7.01227C25.1656 7.51335 26.5282 8.36444 27.6379 9.49541C28.7476 10.6264 29.5726 12.0048 30.0451 13.5172C30.5175 15.0296 30.6239 16.6326 30.3553 18.1941C30.0867 19.7557 29.4509 21.231 28.5003 22.4986" stroke="black" stroke-width="2" stroke-linecap="round" stroke-linejoin="round"/>
<path d="M15.2573 20.7408L19.4999 16.498L23.7426 20.7408" stroke="black" stroke-width="2" stroke-linecap="round" stroke-linejoin="round"/>
<path d="M19.5 26.498V16.498" stroke="black" stroke-width="2" stroke-linecap="round" stroke-linejoin="round"/>
</svg>
